<mxfile host="app.diagrams.net" modified="2022-03-01T07:38:37.080Z" agent="5.0 (Windows NT 10.0; Win64; x64) AppleWebKit/537.36 (KHTML, like Gecko) Chrome/98.0.4758.102 Safari/537.36" etag="EPpqDs6WH-jcUERH2ILC" version="16.6.4" type="github">
  <diagram id="Lg-hWCFLpcMsqBMSjmdD" name="第 1 页">
    <mxGraphModel dx="1422" dy="836" grid="1" gridSize="10" guides="1" tooltips="1" connect="1" arrows="1" fold="1" page="1" pageScale="1" pageWidth="827" pageHeight="1169" math="0" shadow="0">
      <root>
        <mxCell id="0" />
        <mxCell id="1" parent="0" />
        <mxCell id="h73T4WqFtQ5He0e4NS6H-3" value="" style="sketch=0;pointerEvents=1;shadow=0;dashed=0;html=1;strokeColor=none;aspect=fixed;labelPosition=center;verticalLabelPosition=bottom;verticalAlign=top;align=center;outlineConnect=0;shape=mxgraph.vvd.administrator;fillColor=#65B245;" vertex="1" parent="1">
          <mxGeometry x="364" y="490" width="100" height="232.56" as="geometry" />
        </mxCell>
        <mxCell id="h73T4WqFtQ5He0e4NS6H-4" value="" style="verticalLabelPosition=bottom;verticalAlign=top;html=1;shape=mxgraph.basic.smiley;dashed=1;strokeWidth=1;gradientColor=#ffffff;gradientDirection=west;" vertex="1" parent="1">
          <mxGeometry x="369" y="500" width="90" height="85" as="geometry" />
        </mxCell>
      </root>
    </mxGraphModel>
  </diagram>
</mxfile>
